<mxfile host="app.diagrams.net" modified="2023-07-27T16:42:20.914Z" agent="Mozilla/5.0 (Macintosh; Intel Mac OS X 10_15_7) AppleWebKit/537.36 (KHTML, like Gecko) Chrome/115.0.0.0 Safari/537.36" version="21.6.5" etag="4m2E02R-IIqq_6nnm7GZ" type="github">
  <diagram name="Page-1" id="2e6-Bgkt24QJHwJll2lQ">
    <mxGraphModel>
      <root>
        <mxCell id="0" />
        <mxCell id="1" parent="0" />
      </root>
    </mxGraphModel>
  </diagram>
</mxfile>
